<svg data-v-fde0c5aa="" xmlns="http://www.w3.org/2000/svg" viewBox="0 0 300 300" class="iconLeft"><!----><defs data-v-fde0c5aa=""><!----></defs><rect data-v-fde0c5aa="" fill="#E9EEEE" x="0" y="0" width="300px" height="300px" class="logo-background-square"></rect><defs data-v-fde0c5aa=""><!----></defs><g data-v-fde0c5aa="" id="a2f50b40-0be1-43c2-becb-0fc237e69be8" fill="#283543" transform="matrix(1.9347376823425293,0,0,1.9347376823425293,88.1179075711457,131.2717390885616)"><path d="M9.93 7.95L8.55 12.71L8.55 12.71Q8.50 12.89 8.50 13.08L8.50 13.08L8.50 13.08Q8.50 13.23 8.54 13.34L8.54 13.34L8.54 13.34Q8.58 13.44 8.63 13.50L8.63 13.50L8.63 13.50Q8.68 13.57 8.69 13.59L8.69 13.59L8.69 13.59Q8.83 13.73 8.83 13.87L8.83 13.87L8.83 13.87Q8.83 13.90 8.81 14.01L8.81 14.01L8.81 14.01Q8.75 14.21 8.56 14.29L8.56 14.29L8.56 14.29Q8.37 14.36 7.98 14.36L7.98 14.36L4.66 14.36L4.66 14.36Q4.37 14.36 4.21 14.27L4.21 14.27L4.21 14.27Q4.05 14.17 4.05 14L4.05 14L4.05 14Q4.05 13.92 4.09 13.82L4.09 13.82L4.09 13.82Q4.13 13.71 4.21 13.64L4.21 13.64L4.21 13.64Q4.28 13.58 4.42 13.50L4.42 13.50L4.42 13.50Q4.65 13.37 4.79 13.22L4.79 13.22L4.79 13.22Q4.93 13.06 5.03 12.71L5.03 12.71L5.39 11.51L3.21 11.51L2.83 12.31L2.83 12.31Q2.59 12.82 2.59 13.12L2.59 13.12L2.59 13.12Q2.59 13.29 2.65 13.39L2.65 13.39L2.65 13.39Q2.70 13.50 2.81 13.61L2.81 13.61L2.81 13.61Q2.91 13.72 2.95 13.80L2.95 13.80L2.95 13.80Q2.98 13.87 2.95 14L2.95 14L2.95 14Q2.90 14.21 2.72 14.29L2.72 14.29L2.72 14.29Q2.55 14.36 2.17 14.36L2.17 14.36L0.08 14.36L0.08 14.36Q-0.24 14.36-0.41 14.25L-0.41 14.25L-0.41 14.25Q-0.57 14.13-0.57 13.93L-0.57 13.93L-0.57 13.93Q-0.57 13.71-0.41 13.57L-0.41 13.57L-0.41 13.57Q-0.25 13.44 0.07 13.29L0.07 13.29L0.07 13.29Q0.49 13.08 0.74 12.87L0.74 12.87L0.74 12.87Q0.99 12.67 1.18 12.31L1.18 12.31L3.67 7.14L3.67 7.14Q4.24 5.94 5.02 5.40L5.02 5.40L5.02 5.40Q5.80 4.86 7.07 4.86L7.07 4.86L7.07 4.86Q8.50 4.86 9.28 5.44L9.28 5.44L9.28 5.44Q10.07 6.02 10.07 7.06L10.07 7.06L10.07 7.06Q10.07 7.49 9.93 7.95L9.93 7.95ZM3.85 10.11L5.81 10.11L6.55 7.64L6.55 7.64Q6.61 7.48 6.61 7.29L6.61 7.29L6.61 7.29Q6.61 7.03 6.46 6.90L6.46 6.90L6.46 6.90Q6.31 6.76 6.05 6.76L6.05 6.76L6.05 6.76Q5.71 6.76 5.47 6.96L5.47 6.96L5.47 6.96Q5.24 7.15 5.00 7.66L5.00 7.66L3.85 10.11ZM20.47 7.88L20.47 7.88Q20.24 8.69 19.63 9.15L19.63 9.15L19.63 9.15Q19.01 9.60 18.07 9.72L18.07 9.72L18.07 9.72Q18.75 9.77 19.08 10.11L19.08 10.11L19.08 10.11Q19.42 10.44 19.42 10.99L19.42 10.99L19.42 10.99Q19.42 11.20 19.35 11.51L19.35 11.51L19.19 12.19L19.19 12.19Q19.17 12.33 19.17 12.39L19.17 12.39L19.17 12.39Q19.17 12.57 19.25 12.66L19.25 12.66L19.25 12.66Q19.33 12.75 19.49 12.75L19.49 12.75L19.49 12.75Q19.78 12.75 19.91 12.84L19.91 12.84L19.91 12.84Q20.05 12.92 20.01 13.15L20.01 13.15L20.01 13.15Q19.95 13.47 19.67 13.78L19.67 13.78L19.67 13.78Q19.39 14.08 18.88 14.29L18.88 14.29L18.88 14.29Q18.37 14.49 17.64 14.49L17.64 14.49L17.64 14.49Q16.72 14.49 16.17 14.08L16.17 14.08L16.17 14.08Q15.62 13.66 15.62 12.89L15.62 12.89L15.62 12.89Q15.62 12.60 15.71 12.26L15.71 12.26L15.93 11.37L15.93 11.37Q15.99 11.19 15.99 10.99L15.99 10.99L15.99 10.99Q15.99 10.67 15.77 10.53L15.77 10.53L15.77 10.53Q15.55 10.39 15.08 10.39L15.08 10.39L14.55 10.39L13.90 12.71L13.90 12.71Q13.87 12.80 13.87 12.92L13.87 12.92L13.87 12.92Q13.87 13.12 13.97 13.26L13.97 13.26L13.97 13.26Q14.07 13.40 14.24 13.55L14.24 13.55L14.24 13.55Q14.36 13.65 14.43 13.74L14.43 13.74L14.43 13.74Q14.50 13.83 14.50 13.93L14.50 13.93L14.50 13.93Q14.50 14.17 14.28 14.27L14.28 14.27L14.28 14.27Q14.06 14.36 13.62 14.36L13.62 14.36L10.11 14.36L10.11 14.36Q9.74 14.36 9.56 14.23L9.56 14.23L9.56 14.23Q9.38 14.10 9.44 13.86L9.44 13.86L9.44 13.86Q9.46 13.73 9.54 13.66L9.54 13.66L9.54 13.66Q9.62 13.58 9.77 13.48L9.77 13.48L9.77 13.48Q10.01 13.34 10.15 13.19L10.15 13.19L10.15 13.19Q10.29 13.03 10.37 12.71L10.37 12.71L12.08 6.68L12.08 6.68Q12.14 6.50 12.14 6.33L12.14 6.33L12.14 6.33Q12.14 6.17 12.09 6.07L12.09 6.07L12.09 6.07Q12.04 5.96 11.96 5.82L11.96 5.82L11.96 5.82Q11.83 5.64 11.83 5.53L11.83 5.53L11.83 5.53Q11.83 5.49 11.86 5.38L11.86 5.38L11.86 5.38Q11.91 5.19 12.10 5.12L12.10 5.12L12.10 5.12Q12.29 5.04 12.68 5.04L12.68 5.04L17.37 5.04L17.37 5.04Q18.34 5.04 19.06 5.33L19.06 5.33L19.06 5.33Q19.78 5.63 20.17 6.14L20.17 6.14L20.17 6.14Q20.55 6.65 20.55 7.29L20.55 7.29L20.55 7.29Q20.55 7.59 20.47 7.88L20.47 7.88ZM16.88 7.74L16.88 7.74Q16.95 7.42 16.95 7.25L16.95 7.25L16.95 7.25Q16.95 6.51 16.14 6.51L16.14 6.51L15.55 6.51L14.94 8.99L15.53 8.99L15.53 8.99Q16.07 8.99 16.39 8.72L16.39 8.72L16.39 8.72Q16.70 8.46 16.88 7.74L16.88 7.74ZM26.61 5.04L26.61 5.04Q26.91 5.04 27.07 5.13L27.07 5.13L27.07 5.13Q27.23 5.22 27.23 5.39L27.23 5.39L27.23 5.39Q27.23 5.46 27.19 5.57L27.19 5.57L27.19 5.57Q27.15 5.67 27.07 5.75L27.07 5.75L27.07 5.75Q26.99 5.82 26.93 5.86L26.93 5.86L26.93 5.86Q26.87 5.89 26.84 5.92L26.84 5.92L26.84 5.92Q26.61 6.05 26.47 6.20L26.47 6.20L26.47 6.20Q26.33 6.36 26.24 6.68L26.24 6.68L24.54 12.71L24.54 12.71Q24.49 12.89 24.49 13.06L24.49 13.06L24.49 13.06Q24.49 13.23 24.54 13.34L24.54 13.34L24.54 13.34Q24.58 13.45 24.68 13.58L24.68 13.58L24.68 13.58Q24.81 13.76 24.81 13.87L24.81 13.87L24.81 13.87Q24.81 13.90 24.78 14.01L24.78 14.01L24.78 14.01Q24.72 14.21 24.53 14.29L24.53 14.29L24.53 14.29Q24.33 14.36 23.94 14.36L23.94 14.36L20.65 14.36L20.65 14.36Q20.36 14.36 20.20 14.27L20.20 14.27L20.20 14.27Q20.03 14.17 20.03 14L20.03 14L20.03 14Q20.03 13.92 20.08 13.82L20.08 13.82L20.08 13.82Q20.13 13.66 20.26 13.58L20.26 13.58L20.26 13.58Q20.38 13.50 20.41 13.48L20.41 13.48L20.41 13.48Q20.64 13.34 20.78 13.20L20.78 13.20L20.78 13.20Q20.92 13.05 21.01 12.71L21.01 12.71L22.72 6.68L22.72 6.68Q22.78 6.50 22.78 6.33L22.78 6.33L22.78 6.33Q22.78 6.17 22.73 6.07L22.73 6.07L22.73 6.07Q22.68 5.96 22.60 5.82L22.60 5.82L22.60 5.82Q22.47 5.64 22.47 5.53L22.47 5.53L22.47 5.53Q22.47 5.49 22.50 5.38L22.50 5.38L22.50 5.38Q22.55 5.19 22.74 5.12L22.74 5.12L22.74 5.12Q22.93 5.04 23.32 5.04L23.32 5.04L26.61 5.04ZM35.98 7.95L34.61 12.71L34.61 12.71Q34.55 12.89 34.55 13.08L34.55 13.08L34.55 13.08Q34.55 13.23 34.59 13.34L34.59 13.34L34.59 13.34Q34.64 13.44 34.69 13.50L34.69 13.50L34.69 13.50Q34.73 13.57 34.75 13.59L34.75 13.59L34.75 13.59Q34.89 13.73 34.89 13.87L34.89 13.87L34.89 13.87Q34.89 13.90 34.86 14.01L34.86 14.01L34.86 14.01Q34.80 14.21 34.61 14.29L34.61 14.29L34.61 14.29Q34.43 14.36 34.03 14.36L34.03 14.36L30.72 14.36L30.72 14.36Q30.42 14.36 30.26 14.27L30.26 14.27L30.26 14.27Q30.10 14.17 30.10 14L30.10 14L30.10 14Q30.10 13.92 30.14 13.82L30.14 13.82L30.14 13.82Q30.18 13.71 30.26 13.64L30.26 13.64L30.26 13.64Q30.34 13.58 30.48 13.50L30.48 13.50L30.48 13.50Q30.70 13.37 30.84 13.22L30.84 13.22L30.84 13.22Q30.98 13.06 31.08 12.71L31.08 12.71L31.44 11.51L29.26 11.51L28.88 12.31L28.88 12.31Q28.64 12.82 28.64 13.12L28.64 13.12L28.64 13.12Q28.64 13.29 28.70 13.39L28.70 13.39L28.70 13.39Q28.76 13.50 28.87 13.61L28.87 13.61L28.87 13.61Q28.97 13.72 29.00 13.80L29.00 13.80L29.00 13.80Q29.04 13.87 29.01 14L29.01 14L29.01 14Q28.95 14.21 28.78 14.29L28.78 14.29L28.78 14.29Q28.60 14.36 28.22 14.36L28.22 14.36L26.14 14.36L26.14 14.36Q25.82 14.36 25.65 14.25L25.65 14.25L25.65 14.25Q25.48 14.13 25.48 13.93L25.48 13.93L25.48 13.93Q25.48 13.71 25.64 13.57L25.64 13.57L25.64 13.57Q25.80 13.44 26.12 13.29L26.12 13.29L26.12 13.29Q26.54 13.08 26.80 12.87L26.80 12.87L26.80 12.87Q27.05 12.67 27.23 12.31L27.23 12.31L29.72 7.14L29.72 7.14Q30.30 5.94 31.07 5.40L31.07 5.40L31.07 5.40Q31.85 4.86 33.12 4.86L33.12 4.86L33.12 4.86Q34.55 4.86 35.34 5.44L35.34 5.44L35.34 5.44Q36.12 6.02 36.12 7.06L36.12 7.06L36.12 7.06Q36.12 7.49 35.98 7.95L35.98 7.95ZM29.90 10.11L31.86 10.11L32.61 7.64L32.61 7.64Q32.66 7.48 32.66 7.29L32.66 7.29L32.66 7.29Q32.66 7.03 32.52 6.90L32.52 6.90L32.52 6.90Q32.37 6.76 32.10 6.76L32.10 6.76L32.10 6.76Q31.77 6.76 31.53 6.96L31.53 6.96L31.53 6.96Q31.29 7.15 31.05 7.66L31.05 7.66L29.90 10.11ZM50.86 5.04L50.86 5.04Q51.16 5.04 51.32 5.14L51.32 5.14L51.32 5.14Q51.48 5.24 51.48 5.39L51.48 5.39L51.48 5.39Q51.48 5.46 51.44 5.57L51.44 5.57L51.44 5.57Q51.39 5.67 51.32 5.75L51.32 5.75L51.32 5.75Q51.24 5.82 51.18 5.86L51.18 5.86L51.18 5.86Q51.11 5.89 51.09 5.92L51.09 5.92L51.09 5.92Q50.86 6.05 50.72 6.20L50.72 6.20L50.72 6.20Q50.58 6.36 50.48 6.68L50.48 6.68L48.76 12.71L48.76 12.71Q48.71 12.89 48.71 13.06L48.71 13.06L48.71 13.06Q48.71 13.23 48.75 13.33L48.75 13.33L48.75 13.33Q48.80 13.43 48.90 13.58L48.90 13.58L48.90 13.58Q48.92 13.59 48.98 13.69L48.98 13.69L48.98 13.69Q49.04 13.78 49.04 13.87L49.04 13.87L49.04 13.87Q49.04 13.90 49.01 14.01L49.01 14.01L49.01 14.01Q48.94 14.21 48.75 14.29L48.75 14.29L48.75 14.29Q48.55 14.36 48.16 14.36L48.16 14.36L44.87 14.36L44.87 14.36Q44.58 14.36 44.41 14.27L44.41 14.27L44.41 14.27Q44.25 14.17 44.25 14L44.25 14L44.25 14Q44.25 13.92 44.30 13.82L44.30 13.82L44.30 13.82Q44.35 13.71 44.45 13.63L44.45 13.63L44.45 13.63Q44.55 13.55 44.65 13.50L44.65 13.50L44.65 13.50Q44.87 13.37 45.01 13.21L45.01 13.21L45.01 13.21Q45.15 13.05 45.25 12.71L45.25 12.71L45.92 10.37L43.44 10.37L42.77 12.71L42.77 12.71Q42.71 12.89 42.71 13.06L42.71 13.06L42.71 13.06Q42.71 13.23 42.76 13.33L42.76 13.33L42.76 13.33Q42.81 13.43 42.91 13.58L42.91 13.58L42.91 13.58Q42.92 13.59 42.99 13.69L42.99 13.69L42.99 13.69Q43.05 13.78 43.05 13.87L43.05 13.87L43.05 13.87Q43.05 13.90 43.02 14.01L43.02 14.01L43.02 14.01Q42.95 14.21 42.76 14.29L42.76 14.29L42.76 14.29Q42.56 14.36 42.17 14.36L42.17 14.36L38.88 14.36L38.88 14.36Q38.58 14.36 38.42 14.27L38.42 14.27L38.42 14.27Q38.26 14.17 38.26 14L38.26 14L38.26 14Q38.26 13.92 38.30 13.82L38.30 13.82L38.30 13.82Q38.36 13.71 38.46 13.63L38.46 13.63L38.46 13.63Q38.56 13.55 38.65 13.50L38.65 13.50L38.65 13.50Q38.88 13.37 39.02 13.21L39.02 13.21L39.02 13.21Q39.16 13.05 39.26 12.71L39.26 12.71L40.98 6.68L40.98 6.68Q41.03 6.50 41.03 6.33L41.03 6.33L41.03 6.33Q41.03 6.17 40.98 6.07L40.98 6.07L40.98 6.07Q40.94 5.96 40.85 5.82L40.85 5.82L40.85 5.82Q40.80 5.75 40.75 5.68L40.75 5.68L40.75 5.68Q40.71 5.60 40.71 5.52L40.71 5.52L40.71 5.52Q40.71 5.49 40.74 5.38L40.74 5.38L40.74 5.38Q40.80 5.19 40.99 5.12L40.99 5.12L40.99 5.12Q41.19 5.04 41.58 5.04L41.58 5.04L44.87 5.04L44.87 5.04Q45.16 5.04 45.32 5.14L45.32 5.14L45.32 5.14Q45.49 5.24 45.49 5.39L45.49 5.39L45.49 5.39Q45.49 5.46 45.44 5.57L45.44 5.57L45.44 5.57Q45.40 5.67 45.32 5.75L45.32 5.75L45.32 5.75Q45.25 5.82 45.18 5.86L45.18 5.86L45.18 5.86Q45.12 5.89 45.09 5.92L45.09 5.92L45.09 5.92Q44.87 6.05 44.73 6.20L44.73 6.20L44.73 6.20Q44.59 6.36 44.49 6.68L44.49 6.68L43.83 8.97L46.31 8.97L46.97 6.68L46.97 6.68Q47.03 6.50 47.03 6.33L47.03 6.33L47.03 6.33Q47.03 6.17 46.98 6.07L46.98 6.07L46.98 6.07Q46.93 5.96 46.84 5.82L46.84 5.82L46.84 5.82Q46.79 5.75 46.75 5.68L46.75 5.68L46.75 5.68Q46.70 5.60 46.70 5.52L46.70 5.52L46.70 5.52Q46.70 5.49 46.73 5.38L46.73 5.38L46.73 5.38Q46.79 5.19 46.98 5.12L46.98 5.12L46.98 5.12Q47.18 5.04 47.57 5.04L47.57 5.04L50.86 5.04ZM57.12 4.83L57.12 4.83Q58.88 4.83 59.88 5.66L59.88 5.66L59.88 5.66Q60.87 6.50 60.87 8.06L60.87 8.06L60.87 8.06Q60.87 8.81 60.65 9.66L60.65 9.66L60.65 9.66Q60.23 11.23 59.35 12.32L59.35 12.32L59.35 12.32Q58.46 13.41 57.25 13.97L57.25 13.97L57.25 13.97Q56.03 14.53 54.60 14.53L54.60 14.53L54.60 14.53Q52.85 14.53 51.86 13.70L51.86 13.70L51.86 13.70Q50.86 12.87 50.86 11.30L50.86 11.30L50.86 11.30Q50.86 10.58 51.10 9.66L51.10 9.66L51.10 9.66Q51.51 8.11 52.38 7.02L52.38 7.02L52.38 7.02Q53.26 5.94 54.47 5.38L54.47 5.38L54.47 5.38Q55.68 4.83 57.12 4.83L57.12 4.83ZM56.87 6.20L56.87 6.20Q56.45 6.20 56.11 6.54L56.11 6.54L56.11 6.54Q55.78 6.87 55.45 7.64L55.45 7.64L55.45 7.64Q55.12 8.40 54.74 9.76L54.74 9.76L54.74 9.76Q54.18 11.72 54.18 12.46L54.18 12.46L54.18 12.46Q54.18 12.89 54.33 13.09L54.33 13.09L54.33 13.09Q54.49 13.29 54.82 13.29L54.82 13.29L54.82 13.29Q55.24 13.29 55.58 12.94L55.58 12.94L55.58 12.94Q55.92 12.60 56.24 11.84L56.24 11.84L56.24 11.84Q56.56 11.09 56.95 9.76L56.95 9.76L56.95 9.76Q57.50 7.83 57.50 7.04L57.50 7.04L57.50 7.04Q57.50 6.59 57.34 6.40L57.34 6.40L57.34 6.40Q57.19 6.20 56.87 6.20L56.87 6.20ZM71.36 5.04L71.36 5.04Q72.13 5.04 72.13 5.67L72.13 5.67L72.13 5.67Q72.13 5.87 72.04 6.16L72.04 6.16L71.71 7.29L71.71 7.29Q71.55 7.81 71.33 8.02L71.33 8.02L71.33 8.02Q71.11 8.23 70.69 8.23L70.69 8.23L70.69 8.23Q70.34 8.23 70.15 8.05L70.15 8.05L70.15 8.05Q69.96 7.87 69.79 7.48L69.79 7.48L69.55 6.90L69.55 6.90Q69.44 6.64 69.31 6.54L69.31 6.54L69.31 6.54Q69.19 6.44 68.92 6.44L68.92 6.44L68.60 6.44L66.82 12.70L66.82 12.70Q66.78 12.88 66.78 13.02L66.78 13.02L66.78 13.02Q66.78 13.19 66.83 13.30L66.83 13.30L66.83 13.30Q66.88 13.41 66.98 13.54L66.98 13.54L66.98 13.54Q67.10 13.73 67.10 13.86L67.10 13.86L67.10 13.86Q67.10 13.89 67.07 14L67.07 14L67.07 14Q67.00 14.18 66.80 14.27L66.80 14.27L66.80 14.27Q66.60 14.35 66.22 14.35L66.22 14.35L62.93 14.35L62.93 14.35Q62.64 14.35 62.48 14.25L62.48 14.25L62.48 14.25Q62.31 14.15 62.31 13.97L62.31 13.97L62.31 13.97Q62.31 13.89 62.36 13.80L62.36 13.80L62.36 13.80Q62.41 13.68 62.49 13.62L62.49 13.62L62.49 13.62Q62.57 13.55 62.72 13.45L62.72 13.45L62.72 13.45Q62.93 13.33 63.07 13.17L63.07 13.17L63.07 13.17Q63.21 13.02 63.31 12.70L63.31 12.70L65.07 6.44L64.75 6.44L64.75 6.44Q64.44 6.44 64.25 6.54L64.25 6.54L64.25 6.54Q64.05 6.64 63.83 6.90L63.83 6.90L63.36 7.48L63.36 7.48Q63.04 7.85 62.74 8.04L62.74 8.04L62.74 8.04Q62.44 8.23 62.09 8.23L62.09 8.23L62.09 8.23Q61.77 8.23 61.59 8.06L61.59 8.06L61.59 8.06Q61.40 7.90 61.40 7.60L61.40 7.60L61.40 7.60Q61.40 7.46 61.45 7.29L61.45 7.29L61.81 6.02L61.81 6.02Q61.92 5.63 62.06 5.43L62.06 5.43L62.06 5.43Q62.20 5.22 62.46 5.13L62.46 5.13L62.46 5.13Q62.72 5.04 63.20 5.04L63.20 5.04L71.36 5.04ZM79.91 5.04L79.91 5.04Q80.43 5.04 80.72 5.26L80.72 5.26L80.72 5.26Q81.00 5.49 81.00 5.88L81.00 5.88L81.00 5.88Q81.00 6.08 80.95 6.26L80.95 6.26L80.58 7.56L80.58 7.56Q80.49 7.94 80.30 8.09L80.30 8.09L80.30 8.09Q80.11 8.23 79.76 8.23L79.76 8.23L79.76 8.23Q79.42 8.23 79.23 8.09L79.23 8.09L79.23 8.09Q79.04 7.94 78.95 7.60L78.95 7.60L78.72 6.80L78.72 6.80Q78.65 6.55 78.55 6.47L78.55 6.47L78.55 6.47Q78.46 6.38 78.18 6.38L78.18 6.38L76.71 6.38L76.01 8.88L76.62 8.88L76.62 8.88Q76.72 8.88 76.89 8.74L76.89 8.74L77.36 8.32L77.36 8.32Q77.57 8.13 77.73 8.05L77.73 8.05L77.73 8.05Q77.88 7.97 78.11 7.97L78.11 7.97L78.11 7.97Q78.36 7.97 78.52 8.10L78.52 8.10L78.52 8.10Q78.68 8.23 78.68 8.44L78.68 8.44L78.68 8.44Q78.68 8.50 78.65 8.61L78.65 8.61L78.08 10.56L78.08 10.56Q77.99 10.86 77.79 11.01L77.79 11.01L77.79 11.01Q77.59 11.16 77.35 11.16L77.35 11.16L77.35 11.16Q76.96 11.16 76.76 10.75L76.76 10.75L76.52 10.26L76.52 10.26Q76.43 10.05 76.22 10.05L76.22 10.05L75.67 10.05L74.84 13.02L76.08 13.02L76.08 13.02Q76.34 13.02 76.55 12.92L76.55 12.92L76.55 12.92Q76.75 12.81 76.99 12.54L76.99 12.54L77.83 11.62L77.83 11.62Q78.05 11.38 78.25 11.28L78.25 11.28L78.25 11.28Q78.46 11.17 78.75 11.17L78.75 11.17L78.75 11.17Q79.06 11.17 79.25 11.31L79.25 11.31L79.25 11.31Q79.45 11.45 79.45 11.73L79.45 11.73L79.45 11.73Q79.45 11.84 79.41 12.00L79.41 12.00L79.00 13.41L79.00 13.41Q78.85 13.94 78.55 14.15L78.55 14.15L78.55 14.15Q78.26 14.36 77.70 14.36L77.70 14.36L71.02 14.36L71.02 14.36Q70.73 14.36 70.57 14.27L70.57 14.27L70.57 14.27Q70.41 14.17 70.41 14L70.41 14L70.41 14Q70.41 13.92 70.45 13.82L70.45 13.82L70.45 13.82Q70.50 13.66 70.63 13.58L70.63 13.58L70.63 13.58Q70.76 13.50 70.78 13.48L70.78 13.48L70.78 13.48Q71.01 13.34 71.15 13.20L71.15 13.20L71.15 13.20Q71.29 13.05 71.39 12.71L71.39 12.71L73.11 6.68L73.11 6.68Q73.16 6.50 73.16 6.34L73.16 6.34L73.16 6.34Q73.16 6.17 73.11 6.06L73.11 6.06L73.11 6.06Q73.07 5.95 72.97 5.82L72.97 5.82L72.97 5.82Q72.84 5.64 72.84 5.53L72.84 5.53L72.84 5.53Q72.84 5.49 72.87 5.38L72.87 5.38L72.87 5.38Q72.93 5.19 73.12 5.12L73.12 5.12L73.12 5.12Q73.32 5.04 73.70 5.04L73.70 5.04L79.91 5.04ZM88.05 10.75L88.05 10.75Q88.44 10.75 88.64 10.91L88.64 10.91L88.64 10.91Q88.84 11.07 88.84 11.37L88.84 11.37L88.84 11.37Q88.84 11.49 88.80 11.65L88.80 11.65L88.34 13.29L88.34 13.29Q88.16 13.89 87.83 14.13L87.83 14.13L87.83 14.13Q87.50 14.36 86.86 14.36L86.86 14.36L80.28 14.36L80.28 14.36Q79.98 14.36 79.82 14.27L79.82 14.27L79.82 14.27Q79.66 14.17 79.66 14L79.66 14L79.66 14Q79.66 13.92 79.70 13.82L79.70 13.82L79.70 13.82Q79.74 13.71 79.84 13.63L79.84 13.63L79.84 13.63Q79.94 13.55 80.05 13.48L80.05 13.48L80.05 13.48Q80.28 13.34 80.42 13.20L80.42 13.20L80.42 13.20Q80.56 13.05 80.65 12.71L80.65 12.71L82.36 6.68L82.36 6.68Q82.42 6.50 82.42 6.33L82.42 6.33L82.42 6.33Q82.42 6.17 82.37 6.07L82.37 6.07L82.37 6.07Q82.32 5.96 82.24 5.82L82.24 5.82L82.24 5.82Q82.11 5.64 82.11 5.53L82.11 5.53L82.11 5.53Q82.11 5.49 82.14 5.38L82.14 5.38L82.14 5.38Q82.19 5.19 82.38 5.12L82.38 5.12L82.38 5.12Q82.57 5.04 82.96 5.04L82.96 5.04L86.25 5.04L86.25 5.04Q86.55 5.04 86.71 5.13L86.71 5.13L86.71 5.13Q86.87 5.22 86.87 5.39L86.87 5.39L86.87 5.39Q86.87 5.46 86.83 5.57L86.83 5.57L86.83 5.57Q86.79 5.67 86.71 5.75L86.71 5.75L86.71 5.75Q86.63 5.82 86.57 5.86L86.57 5.86L86.57 5.86Q86.51 5.89 86.48 5.92L86.48 5.92L86.48 5.92Q86.25 6.05 86.11 6.20L86.11 6.20L86.11 6.20Q85.97 6.36 85.88 6.68L85.88 6.68L84.07 13.02L84.94 13.02L84.94 13.02Q85.26 13.02 85.49 12.91L85.49 12.91L85.49 12.91Q85.72 12.80 85.97 12.49L85.97 12.49L86.94 11.34L86.94 11.34Q87.21 11.03 87.45 10.89L87.45 10.89L87.45 10.89Q87.70 10.75 88.05 10.75L88.05 10.75Z"></path></g><defs data-v-fde0c5aa=""><linearGradient data-v-fde0c5aa="" gradientTransform="rotate(25)" id="c3d1f688-b202-4e77-901f-239b7dc0dc7e" x1="0%" y1="0%" x2="100%" y2="0%"><stop data-v-fde0c5aa="" offset="0%" stop-color="#D0E90D" stop-opacity="1"></stop><stop data-v-fde0c5aa="" offset="100%" stop-color="#1536F1" stop-opacity="1"></stop></linearGradient></defs><g data-v-fde0c5aa="" id="4c301077-20f0-4637-a351-4eb12d1fa35a" stroke="none" fill="url(#c3d1f688-b202-4e77-901f-239b7dc0dc7e)" transform="matrix(0.5864673852920532,0,0,0.5864673852920532,32.96239163906062,124.19543600988895)"><path d="M68 68H14V24h54v44zm-52-2h50V26H16v40z"></path><path d="M47 68H35V52h12v16zm-10-2h8V54h-8v12z"></path><path d="M15 62h21v2H15zM46 62h21v2H46zM42 59h2v2h-2zM70 26H12v-6h58v6zm-56-2h54v-2H14v2zM30.8 45.1l-4-2.1-4 2.1.8-4.4-3.2-3.1 4.4-.6 2-4 2 4 4.4.6-3.2 3.1.8 4.4zm-4-4.3l1.3.7-.2-1.5 1.1-1-1.5-.2-.7-1.3-.7 1.3-1.4.2 1.1 1-.3 1.5 1.3-.7zM45 45.1L41 43l-4 2.1.8-4.4-3.2-3.1L39 37l2-4 2 4 4.4.6-3.2 3.1.8 4.4zm-4-4.3l1.3.7-.2-1.5 1.1-1-1.5-.2-.7-1.4-.7 1.3-1.4.3 1.1 1-.3 1.5 1.3-.7zM59.8 45.1l-4-2.1-4 2.1.8-4.4-3.2-3.1 4.4-.6 2-4 2 4 4.4.6-3.2 3.1.8 4.4zm-4-4.3l1.3.7-.2-1.5 1.1-1-1.5-.2-.7-1.3-.7 1.3-1.4.2 1.1 1-.3 1.5 1.3-.7z"></path></g><!----></svg>